<svg width="339" height="233" viewBox="0 0 339 233" fill="none" xmlns="http://www.w3.org/2000/svg">
<g clip-path="url(#clip0_130_23)">
<path d="M213.342 81.3809L224.489 83.5634L231.826 78.957L242.448 60.3938L260.921 37.3039L279.503 25.0531L296.289 22.8459L318.236 27.1428L332.563 38.3572L333.908 53.0726L328.11 86.483L322.514 104.762L315.589 122.232L308.878 128.419L297.537 130.044L288.496 128.274L277.038 127.679L265.521 134.002L256.359 147.928L251.691 161.467L246.65 178.756L255.588 192.655L262.647 199.34L266.492 206.495L265.078 211.331L256.581 215.352L242.944 216.886L240.113 217.24L239.356 221.107L232.463 219.757L233.827 202.487L235.901 189.075L219.378 184.298L197.651 179.854L180.112 178.427L160.013 175.865L153.032 174.964L154 137.586L157.974 110.453L165.479 92.1882L176.992 80.8986L190.234 77.0469L202.206 79.1374L213.342 81.3809Z" fill="#D47520"/>
</g>
<g clip-path="url(#clip1_130_23)">
<path d="M61.1942 49.1123L65.0989 40.8323L77.5236 52.1L87.1135 56.8439L108.64 75.9299L97.5422 94.6547L89.9775 105.176L81.2311 111.847L74.2768 127.111L62.144 140.815L80.6714 190.785L56.7359 203.562L50.4151 216.454L66.0033 215.847L85.8438 215.87L98.4108 213.279L117.696 214.171L110.617 198.053L95.4229 193.344L89.2051 174.076L75.6556 141.023L85.9901 123.942L96.0422 111.034L104.385 98.8447L124.306 73.8199L95.8403 50.1767L83.009 40.5001L69.8769 33.1259L67.9736 25.6768L62.0526 22.3964L55.6512 22.2295L48.4388 32.6783L17.4799 34.9475L2.07055 43.7462L9.62785 58.6245L24.3108 73.5204L39.8889 83.7509L61.117 88.7226L66.6606 75.6239L65.9478 63.0615L61.1942 49.1123Z" fill="#1BBC40"/>
</g>
<defs>
<clipPath id="clip0_130_23">
<rect width="162.361" height="205.506" fill="white" transform="translate(179.599) rotate(11.0775)"/>
</clipPath>
<clipPath id="clip1_130_23">
<rect width="113.644" height="200.516" fill="white" transform="translate(0 33.7042) rotate(-11.6505)"/>
</clipPath>
</defs>
</svg>
