<svg width="317" height="189" viewBox="0 0 317 189" fill="none" xmlns="http://www.w3.org/2000/svg">
<path d="M75.4846 3L3.03965 14.1196V41.9185L0 59.1033L5.06608 113.69H28.8767L48.6344 110.152L50.6608 120.261L30.9031 127.337L24.8238 158.674L28.8767 168.277L54.7137 186.978L75.4846 189L98.7886 179.902L115 150.082L110.441 118.239L94.2291 113.69L69.4053 116.217V106.614L110.441 95.4946L96.2555 44.4457L86.63 27.7663L75.4846 3Z" fill="#471406"/>
<g clip-path="url(#clip0_130_22)">
<path d="M312.165 106.685L314.851 103.464L313.518 98.4027L306.275 95.0283L292.047 89.9667L266.279 84.445L265.204 76.5544L257.683 40.6802L253.384 23.6719L239.416 8.26555L222.761 0H202.007L188.933 5.36835L178.188 15.6449L170.149 30.8126L171.482 44.3784V58.6258L176.576 89.9667L175.243 103.004L168 187.858L176.855 189L185.172 103.004L188.933 101.164L232.69 117.49L234.302 160.71L237.267 188.983H247.733L245.684 181.621L243.455 142.065L242.918 118.376L257.683 119.297L255.534 145.508L252.987 177.462L251.235 188.949H261.702L264.11 164.817L265.463 138.827L268.686 118.359L285.859 116.28L303.31 111.917V125.023L304.922 154.677L307.071 188.932H317L312.165 106.617V106.685ZM197.888 93.6649L183.919 95.9656L181.949 65.6132L179.621 45.844V31.8863L185.172 19.4624L195.022 11.1798L201.29 52.5757L207.737 91.6539L197.888 93.6479V93.6649ZM217.05 89.9838L212.394 67.4537L206.842 30.5059L202.007 7.05555L207.737 5.36835L209.349 16.5652L215.438 46.6109L219.915 71.595L222.781 89.0635L217.05 89.9838ZM230.64 87.5297L226.442 53.5812L220.273 23.9275L216.692 5.38539L222.781 5.99892L229.944 47.6846L233.705 74.9694L236.212 86.7628L230.66 87.5297H230.64ZM243.893 84.462L240.132 67.147L236.192 37.2546L231.357 11.1968L240.311 18.099L246.579 30.5059L252.131 48.7412L254.996 63.3124L260.011 81.241L243.913 84.462H243.893Z" fill="#FDB309"/>
</g>
<defs>
<clipPath id="clip0_130_22">
<rect width="149" height="189" fill="white" transform="translate(168)"/>
</clipPath>
</defs>
</svg>
