<svg width="488" height="669" viewBox="0 0 488 669" fill="none" xmlns="http://www.w3.org/2000/svg">
<path d="M0 60.5L24 46.5L84.5 35.5L281.5 9L345.5 0L366.5 35.5L359.5 60.5L309 78H281.5L309 246L332 240H434L443.5 255V301L451.5 321L488 600.5L475.5 616.5L451.5 625.5L419.5 609L388 434.5L375.5 342.5H359.5L323 347L345.5 517V561.5L323 571H291.5L281.5 561.5L276.5 510.5L255 364.5H247L276.5 625.5V655.5L269 669H242H219.5L212.5 655.5L175 352.5H161.5L187.5 561.5V600.5L155 616.5H126.5L117 571L62 120.5L48.5 107H24L0 99.5V60.5Z" fill="#2E5098"/>
<path d="M147.5 271.5L129.5 100.5L219.5 87.5L241 256L147.5 271.5Z" fill="#FDF3E2"/>
</svg>
