<?xml version="1.0" encoding="UTF-8"?>
<svg xmlns="http://www.w3.org/2000/svg" version="1.1" viewBox="0 0 488 669">
  <defs>
    <style>
      .cls-1 {
        fill: #2e5098;
      }
    </style>
  </defs>
  <!-- Generator: Adobe Illustrator 28.6.0, SVG Export Plug-In . SVG Version: 1.2.0 Build 709)  -->
  <g>
    <g id="Layer_1">
      <path class="cls-1" d="M451.5,321l-8-20v-46l-9.5-15h-102l-23,6-27.5-168h27.5l50.5-17.5,7-25L345.5,0l-64,9-197,26.5-60.5,11L0,60.5v39l24,7.5h24.5l13.5,13.5,55,450.5,9.5,45.5h28.5l32.5-16v-39l-26-209h13.5l37.5,303,7,13.5h49.5l7.5-13.5v-30l-29.5-261h8l21.5,146,5,51,10,9.5h31.5l22.5-9.5v-44.5l-22.5-170,36.5-4.5h16l12.5,92,31.5,174.5,32,16.5,24-9,12.5-16-36.5-279.5ZM147.5,271.5l-18-171,90-13,21.5,168.5-93.5,15.5Z"/>
    </g>
  </g>
</svg>