<?xml version="1.0" encoding="UTF-8"?>
<svg xmlns="http://www.w3.org/2000/svg" version="1.1" viewBox="0 0 779 991.1">
  <defs>
    <style>
      .cls-1 {
        fill: #2e5098;
      }
    </style>
  </defs>
  <!-- Generator: Adobe Illustrator 28.6.0, SVG Export Plug-In . SVG Version: 1.2.0 Build 709)  -->
  <g>
    <g id="Capa_2">
      <g id="Capa_2-2">
        <polygon class="cls-1" points="233.9 353.9 288.4 353.9 318.7 325.3 351.6 227.6 417.3 101.2 493.5 26 570.5 0 677.8 0 755.6 39.8 775.5 108.2 779 271.7 769.5 363.4 753 452.5 727.1 488 675.2 506.2 631 506.2 576.5 514 528.1 554.6 497.8 629 488.3 697.4 480.5 783.9 535.4 841.4 574.8 866.5 599.5 896.8 597.3 921 561 947.9 498.2 967.8 485.2 972.1 485.2 991.1 451.5 991.1 442 908.1 439.4 842.7 357.2 835.4 250.8 834.5 166.9 844 69.9 850.5 36.2 852.7 6.3 674.9 0 542.8 18.5 449.4 62.3 385.3 121.1 354.8 179.4 353.6 233.9 353.9"/>
      </g>
    </g>
  </g>
</svg>