<?xml version="1.0" encoding="UTF-8"?>
<svg xmlns="http://www.w3.org/2000/svg" version="1.1" viewBox="0 0 748.8 1109">
  <defs>
    <style>
      .cls-1 {
        fill: #fdb309;
      }
    </style>
  </defs>
  <!-- Generator: Adobe Illustrator 28.6.0, SVG Export Plug-In . SVG Version: 1.2.0 Build 709)  -->
  <g>
    <g id="Capa_2">
      <g id="Capa_1-2">
        <path class="cls-1" d="M724.5,626l13.5-18.9-6.7-29.7-36.4-19.8-71.5-29.7-129.5-32.4-5.4-46.3-37.8-210.5-21.6-99.8-70.2-90.4L275.2,0h-104.3l-65.7,31.5-54,60.3L10.8,180.8l6.7,79.6v83.6l25.6,183.9-6.7,76.5L0,1102.3l44.5,6.7,41.8-504.6,18.9-10.8,219.9,95.8,8.1,253.6,14.9,165.9h52.6l-10.3-43.2-11.2-232.1-2.7-139,74.2,5.4-10.8,153.8-12.8,187.5-8.8,67.4h52.6l12.1-141.6,6.8-152.5,16.2-120.1,86.3-12.2,87.7-25.6v76.9l8.1,174,10.8,201h49.9l-24.3-483h0ZM150.2,549.6l-70.2,13.5-9.9-178.1-11.7-116v-81.9l27.9-72.9,49.5-48.6,31.5,242.9,32.4,229.3-49.5,11.7h0ZM246.5,528l-23.4-132.2-27.9-216.8-24.3-137.6,28.8-9.9,8.1,65.7,30.6,176.3,22.5,146.6,14.4,102.5-28.8,5.4h0ZM314.8,513.6l-21.1-199.2-31-174-18-108.8,30.6,3.6,36,244.6,18.9,160.1,12.6,69.2-27.9,4.5ZM381.4,495.6l-18.9-101.6-19.8-175.4-24.3-152.9,45,40.5,31.5,72.8,27.9,107,14.4,85.5,25.2,105.2-80.9,18.9h0Z"/>
      </g>
    </g>
  </g>
</svg>