<?xml version="1.0" encoding="UTF-8"?>
<svg xmlns="http://www.w3.org/2000/svg" version="1.1" viewBox="0 0 568.6 1005.2">
  <defs>
    <style>
      .cls-1 {
        fill: #2e5098;
      }
    </style>
  </defs>
  <!-- Generator: Adobe Illustrator 28.6.0, SVG Export Plug-In . SVG Version: 1.2.0 Build 709)  -->
  <g>
    <g id="Capa_2">
      <g id="Capa_2-2">
        <polygon class="cls-1" points="284.3 137.6 311.8 100.9 361.3 168.8 403.5 201.8 489.7 317.3 416.4 398 368.7 442 319.1 465.9 269.6 533.8 196.3 588.8 236.6 852.9 106.4 891.4 62.4 948.3 139.4 961.1 236.6 981.3 300.8 981.3 394.4 1005.2 376 918.9 306.3 880.4 295.3 779.5 262.3 603.5 330.2 530.1 392.5 476.9 445.7 425.5 568.6 322.8 453 177.9 399.9 117.4 343 67.9 341.2 29.4 315.5 7.3 284.3 0 238.4 44 84.4 23.8 0 51.4 22 132.1 78.9 220.1 144.9 286.1 243.9 332 284.3 273.3 293.5 210.9 284.3 137.6"/>
      </g>
    </g>
  </g>
</svg>