<?xml version="1.0" encoding="UTF-8"?>
<svg xmlns="http://www.w3.org/2000/svg" version="1.1" viewBox="0 0 727 715.6">
  <defs>
    <style>
      .cls-1 {
        fill: #fdb309;
      }
    </style>
  </defs>
  <!-- Generator: Adobe Illustrator 28.6.0, SVG Export Plug-In . SVG Version: 1.2.0 Build 709)  -->
  <g>
    <g id="Capa_2">
      <g id="Capa_2-2">
        <path class="cls-1" d="M76.3,152.7l11.4-82.1v-11.5l-11.4-24.8s63-1.9,93.5-13.4C200.4,9.5,311,0,337.8,0s202.3,17.2,202.3,17.2l122.1,21,11.5,59.2v129.8l36.3,330.1,17.2,148.8h-49.6l-13.4-166-22.9-196.5-24.8-158.4-227.1-19.1,3.8,347.3,8.6,192.7h-50.6l-11.5-324.4,7.6-221.4h-211.8l-59.2,446.5-15.3,99.2L0,715.6l49.6-326.3,26.7-236.6h0Z"/>
      </g>
    </g>
  </g>
</svg>