<?xml version="1.0" encoding="UTF-8"?>
<svg id="Capa_2" data-name="Capa 2" xmlns="http://www.w3.org/2000/svg" viewBox="0 0 541.29 1032.5">
  <defs>
    <style>
      .cls-1 {
        fill: #e22028;
      }
    </style>
  </defs>
  <g id="Capa_2-2" data-name="Capa 2">
    <polygon class="cls-1" points="126.03 426.57 56.55 361.94 24.24 222.98 51.71 116.34 156.73 22.62 302.16 0 454.04 82.41 520.29 213.29 508.98 310.23 471.81 381.33 421.72 426.57 528.37 470.2 528.37 492.82 508.98 492.82 528.37 815.98 541.29 1014.72 497.67 1014.72 486.36 872.53 471.81 636.63 470.2 571.99 405.57 563.92 407.18 830.52 418.49 945.24 360.32 946.86 373.25 735.19 360.32 578.46 171.28 576.84 171.28 790.13 168.04 940.4 122.8 937.17 122.8 815.98 130.88 612.39 135.73 571.99 74.33 570.38 51.71 890.31 35.55 1032.5 0 1032.5 0 861.22 22.62 707.72 33.93 507.36 0 481.51 63.02 448.69 126.03 426.57"/>
  </g>
</svg>