<svg width="184" height="163" viewBox="0 0 184 163" fill="none" xmlns="http://www.w3.org/2000/svg">
<path d="M82.5421 103.664L85.9813 100.522L101.458 98.7773L112.464 96.6831L117.622 103.664V122.163L120.374 144.152L125.189 153.925L141.009 156.368L157.862 152.18L164.052 144.152L163.021 116.927L160.269 74.6938L169.211 66.666L178.153 55.8458L184 37.3469V24.0835V10.8201L173.338 0H101.458L38.8636 8.02784L13.0692 15.0086L2.06355 19.546L0 34.2056L2.06355 52.0064L14.4449 69.4582L37.4879 87.2591L46.4299 160.906L51.2449 163H62.5944L79.7907 160.906L85.9813 153.925V142.058L82.5421 116.927V103.664Z" fill="#CE3833"/>
</svg>
