<svg width="42" height="40" viewBox="0 0 42 40" fill="none" xmlns="http://www.w3.org/2000/svg">
<path d="M12.6 32C10.29 32 8.421 33.8 8.421 36C8.421 38.2 10.29 40 12.6 40C14.91 40 16.8 38.2 16.8 36C16.8 33.8 14.91 32 12.6 32ZM0 0V4H4.2L11.76 19.18L8.925 24.08C8.589 24.64 8.4 25.3 8.4 26C8.4 28.2 10.29 30 12.6 30H37.8V26H13.482C13.188 26 12.957 25.78 12.957 25.5L13.02 25.26L14.91 22H30.555C32.13 22 33.516 21.18 34.23 19.94L41.748 6.96C41.916 6.68 42 6.34 42 6C42 4.9 41.055 4 39.9 4H8.841L6.867 0H0ZM33.6 32C31.29 32 29.421 33.8 29.421 36C29.421 38.2 31.29 40 33.6 40C35.91 40 37.8 38.2 37.8 36C37.8 33.8 35.91 32 33.6 32Z" fill="#FFFAF2"/>
</svg>
