<svg width="812" height="467" viewBox="0 0 812 467" fill="none" xmlns="http://www.w3.org/2000/svg">
<path d="M40.7461 86.0527V142.409H24.7059L0 158.925L3.84314 183.823L0 227.112L40.7461 264.345L122.98 308.314L168.549 292.952L220.806 259.951L271.216 240.506L318.631 211.589L314.588 148.33L245.961 112.837L202.325 77.6162V31.3839L177.144 14.1734L96.0785 49.7965L40.7461 86.0527Z" fill="#CE3833"/>
<path d="M441.894 25.6471V47.9196L407.372 63.57L374.045 85.7153L341.49 115.485L306.196 123.511L303.748 127.898L306.196 195.728L336.549 205.543L393.647 249.047L482.464 295.279L556.706 349.105L636.348 382.344L673.07 399.217L725.804 382.344L804.222 326.326L812 288.714L804.222 249.047L772.746 224.075L769.176 197.597L772.746 170.756L706.039 123.511L623.932 85.3778L546.823 47.9196L475.119 0L441.894 25.6471Z" fill="#4C6ED1"/>
<path d="M179.242 49.6069L193.931 30.0341H207.921L219.812 44.545V57.706L221 71.5774L207.921 83.6905L222.5 99.0774V131.077L243.594 155.57L272 198.577L251.988 248.034L270.524 273.007L251.988 281.106L243.594 273.007L251.988 292.579H239.048L230.654 271.319V248.034L224.359 229.474V238.248L179.242 191.003L171.898 168.056V155.57L162.455 138.697V94.1519L183.5 83.6905L179.242 64.7927V49.6069Z" fill="#471406"/>
<path d="M452.038 33.7462L462.88 20.5852H475.12H495.405L503.449 53.319L523.734 64.1177V97.8639V128.91L511.843 134.985L516.389 161.982L503.449 183.242V194.715L457.634 238.248L445.393 258.833L438.048 287.18V300.678L395.73 279.081L425.108 218L438.048 194.715L395.73 176.155L375.445 161.982L381.041 144.771L395.73 138.697L438.048 78.966L462.88 53.319L452.038 43.5326V33.7462Z" fill="#4E9C60"/>
<path d="M458.332 97.8639L409.719 137.684H427.905L458.332 128.91V97.8639Z" fill="#4C6ED1"/>
<path d="M630.469 134.985L649.005 120.811H659.147L667.541 140.384V158.27V175.143V195.077L691.5 220.577L723.5 251.747H746.866L749 266.077L732.178 276.381L662.836 209.901L660 222.5L646 242L648.557 264.246L637.114 285.493L566.817 310.465V340.499L539.188 360.072L511.144 374.245V340.499L502 332.077L522.75 318.226L551.079 276.381L595 251.747L602.5 225.077L599 201.077L612 184.077L621.376 169.743L630.469 134.985Z" fill="#FDB309"/>
<path d="M206.172 374.245V298.654L290.431 255.796L327.531 228.462L377.543 255.796L420.211 283.13L463.373 317.32L512.891 337.799V402.592H502.749V388.418L491.907 368.846L447.491 402.592L401.325 420.477L392.232 447.812V466.71H377.543V420.477L333.255 402.592L296.404 374.245L254.745 343.278L215.265 328.013L206.172 374.245Z" fill="#D47520"/>
</svg>
