<svg width="73" height="119" viewBox="0 0 73 119" fill="none" xmlns="http://www.w3.org/2000/svg">
<path d="M12.5 106L22.5 107L23.5 91L33.5 25.5L5 22.5L0 16L2 9L11 2L20.5 0L42 1L59.5 6L70.5 13.5L73 21.5L69.5 28.5L39 25.5L36 54.5L28 107L41.5 110L47 114.5L44.5 118.5L23.5 117.5L16 116L6 112L3 109L12.5 106Z" fill="#D9D9D9"/>
<path d="M12.5 106L22.5 107L23.5 91L33.5 25.5L5 22.5L0 16L2 9L11 2L20.5 0L42 1L59.5 6L70.5 13.5L73 21.5L69.5 28.5L39 25.5L36 54.5L28 107L41.5 110L47 114.5L44.5 118.5L23.5 117.5L16 116L6 112L3 109L12.5 106Z" fill="#D7231D"/>
</svg>
