<svg width="460" height="75" viewBox="0 0 460 75" fill="none" xmlns="http://www.w3.org/2000/svg">
<path d="M18.7 20C18.5667 20.2666 18.4 22.3666 18.2 26.3C18 30.2333 17.9 34.2333 17.9 38.3C17.9 42.4333 18 45.9 18.2 48.7C18.4 50.5 18.9334 52.2666 19.8 54C20.6667 55.6666 21.7 56.8 22.9 57.4C25.2334 57.5333 27 56.4666 28.2 54.2H28.1C28.7 52.9333 29 51.0333 29 48.5C29 46.5 29.1334 44.9333 29.4 43.8C31.0667 44.0666 32.6667 44.2 34.2 44.2L38.8 44.1C41.2 44.1 43.4667 44.3666 45.6 44.9C46.4 47.2333 46.8 49.6666 46.8 52.2C46.8 56 45.8334 59.6 43.9 63C42.0334 66.4 39.4334 69.1666 36.1 71.3C32.7667 73.4333 29.0667 74.5666 25 74.7C23.8 74.9 22.4 75 20.8 75C15.6 75 11.0334 73.8333 7.10002 71.5C3.16669 69.1666 0.966691 65.6666 0.500025 61C0.166691 54.3333 2.44901e-05 47.1666 2.44901e-05 39.5C2.44901e-05 33.1666 0.0333578 27.9666 0.100025 23.9L0.200025 19.4C0.133358 18.4 0.200025 17.2666 0.400025 16C0.666691 14.6666 1.00002 13.5 1.40002 12.5C2.00002 10.9666 2.76669 9.43331 3.70002 7.89997C4.70002 6.36664 5.73336 5.09997 6.80003 4.09997C8.20002 2.96664 10.2667 1.99997 13 1.19997C15.6 0.399974 18.3 -2.5034e-05 21.1 -2.5034e-05C25.6334 -2.5034e-05 29.9 1.06664 33.9 3.19997C37.9 5.26664 41.1 8.1333 43.5 11.8C45.9 15.4 47.1 19.3333 47.1 23.6C47.1 26.1333 46.6334 28.6666 45.7 31.2C42.9 31.8 40.5667 32.1 38.7 32.1C36.1667 32.1 32.6667 31.6666 28.2 30.8L27.9 27C27.7667 23.9333 27.3667 21.6333 26.7 20.1C26.1 18.5 24.7667 17.7333 22.7 17.8C22.6334 17.8 22.5334 17.8333 22.4 17.9C22.3334 17.9 22.2 17.9 22 17.9H22.1C20.0334 18.2333 18.9 18.9333 18.7 20ZM95.0282 20.1C95.2282 22.1666 95.3282 24.2666 95.3282 26.4L95.2282 28.2V30C95.0948 32.2 95.0282 35.4333 95.0282 39.7C95.0282 44.4333 94.9282 48.0333 94.7282 50.5L94.4282 53.8C94.0948 59.2 92.7282 63.8 90.3282 67.6C89.3282 69 87.8282 70.2333 85.8282 71.3C83.8282 72.3666 81.6282 73.2333 79.2281 73.9C76.7615 74.6333 73.8615 75 70.5281 75C68.9948 75 67.9282 74.9666 67.3282 74.9C64.0615 74.6333 61.1281 73.9333 58.5282 72.8C55.9948 71.6 54.1281 69.8666 52.9281 67.6C51.3281 64.6 50.4615 60.8333 50.3281 56.3L50.1281 53.1C50.0615 52.5666 50.0281 51.4666 50.0281 49.8C49.6948 44.3333 49.5281 39.1 49.5281 34.1C49.5281 31.0333 49.6281 27.9666 49.8281 24.9C50.0281 21.5666 50.5948 18.3333 51.5281 15.2C52.5281 12 54.0281 9.19997 56.0281 6.79997L58.2281 5.59997C62.4948 3.53331 67.1615 2.49997 72.2282 2.49997C75.4282 2.49997 78.4282 2.93331 81.2282 3.79997C84.0948 4.59997 86.5948 5.79997 88.7282 7.39998C91.0615 9.53331 92.5948 11.6333 93.3282 13.7C94.1282 15.8333 94.6948 17.9666 95.0282 20.1ZM79.5282 31L79.1282 25.8C78.9948 23.9333 78.5282 22.3 77.7282 20.9C76.9948 19.4333 76.0282 18.4 74.8281 17.8C74.2948 17.6 73.7615 17.5 73.2281 17.5C71.6282 17.5 70.0615 18.0333 68.5282 19.1C67.7282 19.7666 66.9282 20.7333 66.1281 22C65.3948 23.2 64.8282 24.4333 64.4281 25.7C63.7615 28.6333 63.4282 32.3666 63.4282 36.9C63.4282 39.1666 63.4615 40.8666 63.5282 42V41.9C63.7948 43.2333 63.9948 45 64.1282 47.2L64.2282 48.6C64.4948 51.9333 64.8615 54.4 65.3281 56V55.9C65.9282 57.2333 66.7948 58.2666 67.9282 59C69.1282 59.6666 70.3948 60 71.7282 60C72.7948 60 73.8615 59.7666 74.9282 59.3C76.0615 58.7666 77.0282 58.0333 77.8281 57.1C78.4948 56.2333 78.8948 55.5 79.0282 54.9C79.2282 54.3 79.3282 53.3666 79.3282 52.1C79.3282 50.9666 79.3615 50.1333 79.4282 49.6L79.5282 48.3L79.6282 46.4V45L79.7282 43.1V38.3L79.5282 31.5V31ZM144.868 65.9C144.935 66.7 144.968 67.8666 144.968 69.4C144.968 70.8 144.835 71.8 144.568 72.4C144.368 72.9333 144.035 73.2666 143.568 73.4C143.101 73.5333 142.301 73.6 141.168 73.6H140.468L138.868 73.5L136.268 73.6C132.135 73.7333 126.035 73.8 117.968 73.8C110.301 73.8 104.201 73.7666 99.668 73.7V71.4C100.135 60.4 100.368 49.3333 100.368 38.2C100.368 34.9333 100.301 29.3 100.168 21.3V18.9V15.2C100.101 14.0666 100.068 12.0333 100.068 9.09997L99.968 2.59997C100.901 2.26664 102.201 1.99997 103.868 1.79997C105.535 1.53331 107.201 1.39997 108.868 1.39997C110.735 1.39997 112.601 1.53331 114.468 1.79997C116.335 2.06664 117.835 2.4333 118.968 2.89997C118.835 7.69997 118.768 11.5333 118.768 14.4C118.768 18.4 118.835 24.4 118.968 32.4C119.035 36.4 119.068 42.3 119.068 50.1V56.6C121.268 56.6 123.968 56.7 127.168 56.9L132.468 57.1C135.268 57.3 137.901 57.4 140.368 57.4C142.101 57.4 143.635 57.3333 144.968 57.2C144.968 58.7333 144.935 59.7333 144.868 60.2V60.1C144.735 61.9 144.701 63.2 144.768 64L144.868 65.9ZM191.962 65.9C192.028 66.7 192.062 67.8666 192.062 69.4C192.062 70.8 191.928 71.8 191.662 72.4C191.462 72.9333 191.128 73.2666 190.662 73.4C190.195 73.5333 189.395 73.6 188.262 73.6H187.562L185.962 73.5L183.362 73.6C179.228 73.7333 173.128 73.8 165.062 73.8C157.395 73.8 151.295 73.7666 146.762 73.7V71.4C147.228 60.4 147.462 49.3333 147.462 38.2C147.462 34.9333 147.395 29.3 147.262 21.3V18.9V15.2C147.195 14.0666 147.162 12.0333 147.162 9.09997L147.062 2.59997C147.995 2.26664 149.295 1.99997 150.962 1.79997C152.628 1.53331 154.295 1.39997 155.962 1.39997C157.828 1.39997 159.695 1.53331 161.562 1.79997C163.428 2.06664 164.928 2.4333 166.062 2.89997C165.928 7.69997 165.862 11.5333 165.862 14.4C165.862 18.4 165.928 24.4 166.062 32.4C166.128 36.4 166.162 42.3 166.162 50.1V56.6C168.362 56.6 171.062 56.7 174.262 56.9L179.562 57.1C182.362 57.3 184.995 57.4 187.462 57.4C189.195 57.4 190.728 57.3333 192.062 57.2C192.062 58.7333 192.028 59.7333 191.962 60.2V60.1C191.828 61.9 191.795 63.2 191.862 64L191.962 65.9ZM239.755 64.2C239.755 67.6 239.389 70.6333 238.655 73.3C235.722 73.3 231.389 73.3666 225.655 73.5L212.555 73.6C206.622 73.6 200.689 73.4 194.755 73C194.822 70.8666 194.722 62.5666 194.455 48.1C194.255 39.9 194.155 33.6 194.155 29.2C194.155 20.0666 194.389 11.5666 194.855 3.69998L203.655 3.39997C213.522 2.99997 221.055 2.79997 226.255 2.79997C230.722 2.79997 235.055 2.96664 239.255 3.29997C239.522 4.69997 239.655 6.3333 239.655 8.19997C239.655 9.19997 239.589 10.8333 239.455 13.1C239.322 15.2333 239.255 16.9 239.255 18.1C235.255 18.9666 230.789 19.4 225.855 19.4L212.855 19.5C212.522 22.6333 212.355 25.2333 212.355 27.3C212.355 28.9 212.555 30.3 212.955 31.5L219.555 30.7C220.489 30.7 221.889 30.7666 223.755 30.9L225.055 31C225.389 33 225.555 35.1666 225.555 37.5L225.355 45.5C223.222 46.1 220.355 46.4 216.755 46.4L214.155 46.3C213.689 46.3 213.389 46.3666 213.255 46.5L212.855 51.7C212.855 54.4333 212.989 56.7 213.255 58.5C216.722 58.5 220.089 58.6 223.355 58.8C224.489 58.8666 225.889 58.9333 227.555 59C229.222 59.0666 231.189 59.1 233.455 59.1L239.555 58.9C239.689 61.9666 239.755 63.7333 239.755 64.2ZM261.2 20C261.067 20.2666 260.9 22.3666 260.7 26.3C260.5 30.2333 260.4 34.2333 260.4 38.3C260.4 42.4333 260.5 45.9 260.7 48.7C260.9 50.5 261.433 52.2666 262.3 54C263.167 55.6666 264.2 56.8 265.4 57.4C267.733 57.5333 269.5 56.4666 270.7 54.2H270.6C271.2 52.9333 271.5 51.0333 271.5 48.5C271.5 46.5 271.633 44.9333 271.9 43.8C273.567 44.0666 275.167 44.2 276.7 44.2L281.3 44.1C283.7 44.1 285.967 44.3666 288.1 44.9C288.9 47.2333 289.3 49.6666 289.3 52.2C289.3 56 288.333 59.6 286.4 63C284.533 66.4 281.933 69.1666 278.6 71.3C275.267 73.4333 271.567 74.5666 267.5 74.7C266.3 74.9 264.9 75 263.3 75C258.1 75 253.533 73.8333 249.6 71.5C245.667 69.1666 243.467 65.6666 243 61C242.667 54.3333 242.5 47.1666 242.5 39.5C242.5 33.1666 242.533 27.9666 242.6 23.9L242.7 19.4C242.633 18.4 242.7 17.2666 242.9 16C243.167 14.6666 243.5 13.5 243.9 12.5C244.5 10.9666 245.267 9.43331 246.2 7.89997C247.2 6.36664 248.233 5.09997 249.3 4.09997C250.7 2.96664 252.767 1.99997 255.5 1.19997C258.1 0.399974 260.8 -2.5034e-05 263.6 -2.5034e-05C268.133 -2.5034e-05 272.4 1.06664 276.4 3.19997C280.4 5.26664 283.6 8.1333 286 11.8C288.4 15.4 289.6 19.3333 289.6 23.6C289.6 26.1333 289.133 28.6666 288.2 31.2C285.4 31.8 283.067 32.1 281.2 32.1C278.667 32.1 275.167 31.6666 270.7 30.8L270.4 27C270.267 23.9333 269.867 21.6333 269.2 20.1C268.6 18.5 267.267 17.7333 265.2 17.8C265.133 17.8 265.033 17.8333 264.9 17.9C264.833 17.9 264.7 17.9 264.5 17.9H264.6C262.533 18.2333 261.4 18.9333 261.2 20ZM335.428 3.09997C335.561 5.36664 335.628 7.49997 335.628 9.49997C335.628 13.3666 335.395 16.8333 334.928 19.9C332.728 19.5 330.995 19.3 329.728 19.3L325.028 19.2C323.295 19.2 322.428 19.3 322.428 19.5C322.295 20.4333 322.228 22.4 322.228 25.4C322.228 31.2666 322.461 47.0666 322.928 72.8C320.995 73.1333 318.728 73.3 316.128 73.3H313.228C309.895 73.3 306.828 73.5333 304.028 74C303.828 73.6666 303.661 73 303.528 72C303.461 70.9333 303.461 69.9666 303.528 69.1V64.2L303.628 55.2C303.628 43.0666 303.361 31.2333 302.828 19.7C302.095 19.3666 301.061 19.2 299.728 19.2L295.728 19.3C293.461 19.3 291.828 19.1333 290.828 18.8C290.628 18.4 290.461 17.3 290.328 15.5C290.195 13.7 290.128 11.6666 290.128 9.39997C290.128 6.06664 290.161 3.66664 290.228 2.19997H294.528L298.428 2.09997H304.028L309.828 1.99997C319.761 1.99997 327.861 2.36664 334.128 3.09997H335.428ZM359.764 3.19997C359.764 11 359.664 18.8666 359.464 26.8C359.197 37.3333 359.064 45.6333 359.064 51.7C359.064 58.7 359.264 65.6666 359.664 72.6C358.664 73.6 356.064 74.1 351.864 74.1C349.464 74.1 347.697 74.0666 346.564 74L345.364 73.9L343.564 73.8C342.231 73.8 340.531 74.0666 338.464 74.6C338.864 68.8 339.064 62.6333 339.064 56.1C339.064 53.5 338.997 49.6666 338.864 44.6L338.764 38.8C338.497 31.7333 338.364 26 338.364 21.6C338.364 15 338.664 8.49997 339.264 2.09997C340.131 1.96664 341.064 1.89997 342.064 1.89997C342.597 1.89997 343.331 1.96664 344.264 2.09997C345.197 2.16664 346.297 2.16664 347.564 2.09997C351.031 2.29997 353.797 2.36664 355.864 2.29998H359.764V3.19997ZM409.841 20.1C410.041 22.1666 410.141 24.2666 410.141 26.4L410.041 28.2V30C409.907 32.2 409.841 35.4333 409.841 39.7C409.841 44.4333 409.741 48.0333 409.541 50.5L409.241 53.8C408.907 59.2 407.541 63.8 405.141 67.6C404.141 69 402.641 70.2333 400.641 71.3C398.641 72.3666 396.441 73.2333 394.041 73.9C391.574 74.6333 388.674 75 385.341 75C383.807 75 382.741 74.9666 382.141 74.9C378.874 74.6333 375.941 73.9333 373.341 72.8C370.807 71.6 368.941 69.8666 367.741 67.6C366.141 64.6 365.274 60.8333 365.141 56.3L364.941 53.1C364.874 52.5666 364.841 51.4666 364.841 49.8C364.507 44.3333 364.341 39.1 364.341 34.1C364.341 31.0333 364.441 27.9666 364.641 24.9C364.841 21.5666 365.407 18.3333 366.341 15.2C367.341 12 368.841 9.19997 370.841 6.79997L373.041 5.59997C377.307 3.53331 381.974 2.49997 387.041 2.49997C390.241 2.49997 393.241 2.93331 396.041 3.79997C398.907 4.59997 401.407 5.79997 403.541 7.39998C405.874 9.53331 407.407 11.6333 408.141 13.7C408.941 15.8333 409.507 17.9666 409.841 20.1ZM394.341 31L393.941 25.8C393.807 23.9333 393.341 22.3 392.541 20.9C391.807 19.4333 390.841 18.4 389.641 17.8C389.107 17.6 388.574 17.5 388.041 17.5C386.441 17.5 384.874 18.0333 383.341 19.1C382.541 19.7666 381.741 20.7333 380.941 22C380.207 23.2 379.641 24.4333 379.241 25.7C378.574 28.6333 378.241 32.3666 378.241 36.9C378.241 39.1666 378.274 40.8666 378.341 42V41.9C378.607 43.2333 378.807 45 378.941 47.2L379.041 48.6C379.307 51.9333 379.674 54.4 380.141 56V55.9C380.741 57.2333 381.607 58.2666 382.741 59C383.941 59.6666 385.207 60 386.541 60C387.607 60 388.674 59.7666 389.741 59.3C390.874 58.7666 391.841 58.0333 392.641 57.1C393.307 56.2333 393.707 55.5 393.841 54.9C394.041 54.3 394.141 53.3666 394.141 52.1C394.141 50.9666 394.174 50.1333 394.241 49.6L394.341 48.3L394.441 46.4V45L394.541 43.1V38.3L394.341 31.5V31ZM440.28 64.7C436.08 55.5 433.314 49.1333 431.98 45.6V64.8C431.98 68.9333 432.014 71.7666 432.08 73.3C430.28 73.8333 428.314 74.1 426.18 74.1C425.514 74.1 424.514 74.0333 423.18 73.9C421.714 73.7666 420.647 73.7 419.98 73.7L415.08 73.5V66C415.08 61.7333 415.014 55.6666 414.88 47.8C414.814 43.8666 414.78 37.9 414.78 29.9C414.78 19.1666 415.08 10.1666 415.68 2.89997C417.48 2.4333 419.48 2.19997 421.68 2.19997C423.147 2.19997 424.914 2.3333 426.98 2.59997C429.114 2.86664 430.58 3.26664 431.38 3.79997C432.314 5.5333 433.447 7.96664 434.78 11.1C436.18 14.1666 437.514 17.2333 438.78 20.3L442.78 29.5C442.647 24.8333 442.58 19.3333 442.58 13C442.58 7.86664 442.614 4.33331 442.68 2.39997C445.414 1.86664 448.314 1.59997 451.38 1.59997C453.98 1.59997 456.68 1.89997 459.48 2.49997V73.4C459.28 73.4 458.88 73.5 458.28 73.7C457.614 73.9666 456.447 74.1 454.78 74.1C454.447 74.1666 452.68 74.0666 449.48 73.8C448.68 73.7333 447.647 73.6666 446.38 73.6C445.18 73.5333 444.48 73.5333 444.28 73.6L440.28 64.7Z" fill="#2E5098"/>
</svg>
