<?xml version="1.0" encoding="UTF-8"?>
<svg xmlns="http://www.w3.org/2000/svg" version="1.1" viewBox="0 0 374.9 654.4">
  <defs>
    <style>
      .cls-1 {
        fill: #471406;
      }
    </style>
  </defs>
  <!-- Generator: Adobe Illustrator 28.6.0, SVG Export Plug-In . SVG Version: 1.2.0 Build 709)  -->
  <g>
    <g id="Capa_2">
      <g id="Capa_2-2">
        <polygon class="cls-1" points="0 361.8 0 278.4 6.6 175.4 25.2 125 25.2 55.9 38.4 6.6 294.9 0 312.4 68 345.3 155.7 359.5 234.6 374.9 342 230.2 361.8 218.1 396.8 308 396.8 362.8 416.6 366.1 501 362.8 542.6 326.7 601.8 288.3 641.3 201.7 654.4 140.3 639.1 95.4 602.9 57 562.3 46 518.5 62.5 459.3 82.2 417.6 152.4 404.5 153.5 369.4 128.3 363.9 76.7 371.6 0 361.8"/>
      </g>
    </g>
  </g>
</svg>